<?xml version="1.0" encoding="UTF-8"?>
<!DOCTYPE svg PUBLIC "-//W3C//DTD SVG 1.1//EN" "http://www.w3.org/Graphics/SVG/1.1/DTD/svg11.dtd">
<!-- Creator: CorelDRAW -->
<svg xmlns="http://www.w3.org/2000/svg" xml:space="preserve" width="4.2334mm" height="4.7356mm" style="shape-rendering:geometricPrecision; text-rendering:geometricPrecision; image-rendering:optimizeQuality; fill-rule:evenodd; clip-rule:evenodd"
viewBox="0 0 0.16717 0.187001"
 xmlns:xlink="http://www.w3.org/1999/xlink">
 <defs>
  <style type="text/css">
   <![CDATA[
    .fil5 {fill:#00539E}
    .fil4 {fill:#0F2451}
    .fil2 {fill:#CF050F}
    .fil0 {fill:#D55501}
    .fil3 {fill:#DFA20E}
    .fil1 {fill:#ECE3BD}
    .fil6 {fill:#FDFEFE}
   ]]>
  </style>
 </defs>
 <g id="Слой_x0020_1">
  <metadata id="CorelCorpID_0Corel-Layer"/>
  <g id="_32622648">
   <path id="_79545552" class="fil0" d="M0.0316419 0.0401398l-0.0023614 -0.00283526 -0.00377902 0.00377902 -7.89765e-006 -0.00655505 -0.00424104 -0.000529142 -0.00210472 -0.000315906 0.00560733 -0.00357763 -0.00296557 -0.00577713 0.00596272 0.00160322 0.00232191 -0.00576528 0.00250355 0.00577713 0.00613647 -0.00186384 -0.00315511 0.00596667 0.000485705 -4.73859e-005 0.00456879 0.00354604 -0.00424893 0.000454115 0.00141368 0.0023614 0.00910599 -0.00161507 -0.00816617 -0.00547307 0.00472674 -0.00849392c-0.00277997,6.31812e-005 -0.00714342,0.0023614 -0.00849787,0.0023614 -0.00165061,0 -0.00412257,-0.00696573 -0.00425288,-0.00850182l-0.000770021 6.713e-005 -0.00300506 0.00843469 -0.00141763 0c-0.00137024,0 -0.00679988,-0.00196651 -0.00852946,-0.0023456l0.00466751 0.00883747 -0.00745933 0.00567841 0.00954431 0.00105828 -0.000675249 0.00990365 0.000383036 0.000304059 0.00679198 -0.00643658 0.00141763 0z"/>
   <path id="_102562312" class="fil1" d="M0.0292805 0.000473859l-0.000473859 0.00141368 -0.00046991 0.00141763 -0.000473859 0.000943769 -0.000473859 0.00141763 -0.00046991 0.000943769 -0.000473859 0.00141763 -0.00046991 0.00141763 -0.000473859 0.000943769 -0.000473859 0.00141763 -0.00046991 0.000943769 -0.000473859 0.00141763 -0.00046991 0.00141368 -2.36929e-005 0.00148871 -0.000920076 -0.000540989 -0.00141763 -0.000473859 -0.00189149 -0.000473859 -0.00141368 -0.00046991 -0.00189149 -0.000473859 -0.00141368 -0.00046991 -0.00141763 -0.000473859 -0.00188754 -0.00046991 -0.00141763 -0.000473859 -0.00141763 -0.000473859 -0.00188754 -0.00046991 -0.000943769 0 0 0.000943769 0.00046991 0.000943769 0.000473859 0.000473859 0.00046991 0.000943769 0.000473859 0.000943769 0.00046991 0.000943769 0.000473859 0.000473859 0.000473859 0.000943769 0.00046991 0.000943769 0.000473859 0.000473859 0.00046991 0.000943769 0.000473859 0.000943769 0.000473859 0.000473859 0.00046991 0.000943769 0.000473859 0.000943769 0.00046991 0.000943769 0.000473859 0.000473859 0.00046991 0.000943769 0.000473859 0.000943769 0.000473859 0.000943769 -0.000947718 0 -0.00046991 0.000473859 -0.000943769 0.00046991 -0.000473859 0.000473859 -0.00046991 0.000473859 -0.000947718 0.00046991 -0.00046991 0.000473859 -0.000943769 0.00046991 -0.000473859 0.000473859 -0.000943769 0.000473859 -0.000473859 0.00046991 -0.000943769 0.000473859 -0.00046991 0.00046991 -0.000473859 0.000473859 -0.000943769 0.00046991 -0.000473859 0.000473859 -0.000943769 0.000473859 -0.000473859 0.00046991 -0.000943769 0.000473859 -0.00046991 0.00046991 -0.000947718 0.000473859 0 0.000943769 0.00141763 0.000473859 0.00330517 0.00046991 0.00330517 0.000473859 0.00330911 0.00046991 0.00283131 0.000473859 0.00382641 0 -0.000521245 0.0051927 -0.00046991 0.00755805 -0.000473859 0.0051927 0 0.000473859 0.00141763 0 0.00046991 -0.000473859 0.000473859 -0.00046991 0.00046991 -0.000473859 0.000473859 -0.00046991 0.000473859 -0.000473859 0.00046991 -0.000473859 0.000473859 -0.00046991 0.00046991 -0.000473859 0.000473859 -0.00046991 0.000473859 -0.000473859 0.00046991 -0.000473859 0.000473859 -0.00046991 0.00046991 -0.000473859 0.000473859 -0.00046991 0.00046991 -0.000473859 0.000947718 -0.00046991 0.00046991 -0.000473859 0.000473859 -0.000473859 0.00046991 -0.00046991 0.000473859 -0.000473859 0.0023614 -0.0051927 -0.010958 0.00991155 0.000568631 -0.0127468 7.89765e-006 -0.00242063 -0.01512 -0.00182831c0.000983257,-0.00271679 0.0122808,-0.00744353 0.0122808,-0.00944559 0,-0.00193887 -0.0063655,-0.0101327 -0.00707234,-0.013268l0.0145791 0.00428053 0.00524009 -0.0141486c0.00197836,0.00144527 0.00525983,0.0136945 0.00661428,0.0136945 0.00263387,0 0.0110093,-0.0035184 0.0144251,-0.00410678l-0.00753831 0.0133628 0.0124941 0.00881378 -0.014662 0.00223503 0 0.0051927c0,0.00180461 -0.000142158,0.000173748 0.000473859,0.00141763l0.000473859 0.00046991 0.00141368 0 0 -0.00235745 -0.00046991 -0.00283526 0.00141368 0 0.00283526 -0.000473859 0.00283131 -0.00046991 0.00283526 -0.000473859 0.00283131 -0.00046991 0.00283526 -0.000473859 0.0023614 -0.00046991 0 -0.000947718 -0.000943769 -0.00046991 -0.000473859 -0.000473859 -0.000943769 -0.00046991 -0.000473859 -0.000473859 -0.000943769 -0.000473859 -0.00046991 -0.00046991 -0.000947718 -0.000473859 -0.00046991 -0.00046991 -0.000943769 -0.000473859 -0.000473859 -0.00046991 -0.000943769 -0.000473859 -0.000473859 -0.000473859 -0.000943769 -0.00046991 -0.00046991 -0.000473859 -0.000947718 -0.00046991 -0.00046991 -0.000473859 -0.000943769 -0.000473859 -0.000473859 -0.00046991 -0.000943769 -0.000473859 -0.000473859 -0.00046991 -0.00046991 -0.000473859 0.00046991 -0.000943769 0.000473859 -0.000943769 0.000473859 -0.000943769 0.00046991 -0.000473859 0.000473859 -0.000943769 0.00046991 -0.000943769 0.000473859 -0.000947718 0.00046991 -0.00046991 0.000473859 -0.000943769 0.000473859 -0.000943769 0.00046991 -0.000947718 0.000473859 -0.000943769 0.00046991 -0.000943769 0.000473859 -0.000473859 0.000473859 -0.000943769 0.00046991 -0.000943769 0.000473859 -0.000943769 0.00046991 -0.000473859 0 -0.000943769 -0.000943769 0 -0.00188754 0.000473859 -0.00141763 0.00046991 -0.00141763 0.000473859 -0.00141368 0.000473859 -0.00141763 0.00046991 -0.00141763 0.000473859 -0.00188754 0.00046991 -0.00141763 0.000473859 -0.00141763 0.00046991 -0.00141763 0.000473859 -0.00188754 0.000473859 0 -0.000947718 -0.00046991 -0.00141368 -0.000473859 -0.000943769 -0.000473859 -0.00141763 -0.00046991 -0.000943769 -0.000473859 -0.00141763 -0.00046991 -0.000943769 -0.000473859 -0.00141763 -0.000473859 -0.000943769 -0.00046991 -0.00141763 -0.000473859 -0.000943769 -0.00046991 -0.000943769 -0.000473859 -0.00141763 -0.000473859 -0.00141763 -0.000943769 0 -0.00046991 0.000473859z"/>
   <path id="_102562576" class="fil2" d="M0.0292805 0.0373045c-0.00120834,-0.00180066 -0.00330517,-0.00256674 -0.00330517,-0.0051927l0 -0.000473859c0,-0.0013347 0.00196651,-0.00283131 0.00330517,-0.00283131 0.00167035,0 0.00557969,0.00418575 0.00708419,0.0051927l0.00424893 -0.000454115 -0.00456879 -0.00354604 -0.000485705 4.73859e-005 0.00315511 -0.00596667 -0.00613647 0.00186384 -0.00250355 -0.00577713 -0.00232191 0.00576528 -0.00596272 -0.00160322 0.00296557 0.00577713 -0.00560733 0.00357763 0.00210472 0.000315906 0.00424104 0.000529142 7.89765e-006 0.00655505 0.00377902 -0.00377902z"/>
   <path id="_103686872" class="fil3" d="M0.0302243 0.0448626c0.00141368,-0.000947718 0.00274048,-0.00263781 0.00141763,-0.00472279l-0.00141763 0 -0.00679198 0.00643658 -0.000383036 -0.000304059 0.000675249 -0.00990365 -0.00954431 -0.00105828 0.00745933 -0.00567841 -0.00466751 -0.00883747c0.00172958,0.000379087 0.00715922,0.0023456 0.00852946,0.0023456l0.00141763 0 0.00300506 -0.00843469 0.000770021 -6.713e-005c0.000130311,0.00153609 0.00260228,0.00850182 0.00425288,0.00850182 0.00135445,0 0.0057179,-0.00229822 0.00849787,-0.0023614l-0.00472674 0.00849392 0.00816617 0.00547307 -0.00910599 0.00161507 0.000943769 0.00850182 0.000947718 0.00046991 0.00046991 0.000473859 0.000473859 0.00046991 0.000943769 0 0 -0.00046991c-0.000616017,-0.00124388 -0.000473859,0.000386985 -0.000473859,-0.00141763l0 -0.0051927 0.014662 -0.00223503 -0.0124941 -0.00881378 0.00753831 -0.0133628c-0.00341573,0.000588375 -0.0117912,0.00410678 -0.0144251,0.00410678 -0.00135445,0 -0.00463592,-0.0122493 -0.00661428,-0.0136945l-0.00524009 0.0141486 -0.0145791 -0.00428053c0.00070684,0.00313537 0.00707234,0.0113292 0.00707234,0.013268 0,0.00200205 -0.0112976,0.0067288 -0.0122808,0.00944559l0.01512 0.00182831 -7.89765e-006 0.00242063 -0.000568631 0.0127468 0.010958 -0.00991155z"/>
   <path id="_103686944" class="fil4" d="M0.0292805 0.0373045l0.0023614 0.00283526c0.00132286,0.00208498 -3.94882e-006,0.00377508 -0.00141763,0.00472279l-0.0023614 0.0051927 0 0.00472279 0.000473859 0.00141763 0.00046991 0.00141763 0.000473859 0.00046991 0.00046991 0.000943769 0.000473859 0.000473859c0.00222319,0.00148871 0.00923235,0.00897173 0.0108593,0.00897173l0.000473859 0c0.00220344,0 0.00330517,-0.00110172 0.00330517,-0.00330517 0,-0.00373164 -0.00842284,-0.00750671 -0.00944559,-0.0113331l0 -0.00330517 0.000473859 -0.000943769 0.000473859 -0.000473859 0.00046991 -0.000473859 0.000473859 -0.000943769 0 -0.000943769 0.000943769 0 0.00046991 -0.00188754 -0.000943769 -0.00850182 -0.00141368 -0.0023614c-0.0015045,-0.00100695 -0.00541384,-0.0051927 -0.00708419,-0.0051927 -0.00133865,0 -0.00330517,0.0014966 -0.00330517,0.00283131l0 0.000473859c0,0.00262597 0.00209683,0.00339204 0.00330517,0.0051927z"/>
   <path id="_103687040" class="fil5" d="M0.0533644 0.0425012l-0.00141763 0.00046991 -0.00141763 0.000473859 -0.000943769 0.000473859 -0.000943769 0.00046991 -0.000943769 0.000473859 -0.000947718 0.00046991 -0.000943769 0.000473859 -0.00046991 0.00046991 -0.000947718 0.000473859 -0.000943769 0.000473859 -0.00046991 0.00046991 -0.000473859 0.000473859 -0.000943769 0.00046991 -0.000473859 0.000473859 -0.000943769 0.000473859 -0.00046991 0.00046991 -0.000473859 0.000473859 -0.000473859 0.00046991 -0.00046991 0.000473859 -0.000473859 0.000473859 -0.000943769 0.00046991 -0.00046991 0.000473859 -0.000473859 0.00046991 -0.000473859 0.000473859c0.00102275,0.00382641 0.00944559,0.00760149 0.00944559,0.0113331 0,0.00220344 -0.00110172,0.00330517 -0.00330517,0.00330517l-0.000473859 0c-0.00162692,0 -0.00863608,-0.00748302 -0.0108593,-0.00897173l-0.000473859 0.00046991 -0.00046991 0.000473859 -0.000473859 0.000943769 -0.00046991 0.000473859 -0.000473859 0.00046991 -0.000473859 0.000473859 -0.00046991 0.000943769 -0.000473859 0.000473859 -0.00046991 0.000943769 -0.000473859 0.00046991 -0.000473859 0.000947718 -0.00046991 0.00046991 -0.000473859 0.000943769 -0.00046991 0.000947718 -0.000473859 0.000943769 -0.00046991 0.000943769 -0.000473859 0.000943769 -0.000473859 0.000943769 -0.00046991 0.000943769 -0.000473859 0.00141763 -0.00046991 0.00141763 -0.000473859 0.00188754 0 0.00519665 0.000473859 0.00141368 0.00046991 0.000473859 0.000473859 0.000943769 0.00046991 0.000473859 0.000473859 0.00046991 0.000943769 0.000473859 0.000473859 0c0.0126204,0 0.0191794,-0.00667351 0.025616,-0.0131061 0.00439109,-0.00438714 0.0140499,-0.0167035 0.0140499,-0.0246723l0 -0.00188754c0,-0.00127547 -0.000225083,-0.00130311 -0.000473859,-0.0023614l0 -0.000473859 -0.00046991 -0.000943769 -0.000473859 -0.00046991 -0.00046991 -0.000473859 -0.000473859 -0.000473859 -0.000943769 -0.00046991 -0.0023614 -0.000473859 -0.00141763 0 -0.00283131 0.000473859z"/>
   <path id="_103687136" class="fil4" d="M0.023614 0.0878337l0 0.000473859 0.000943769 0.00046991 0.00046991 0.000473859 0.000947718 0.00046991 0.00046991 0.000473859 0.000943769 0.00046991 0.000473859 0.000473859 0.000473859 0.000473859 0.000943769 0.00046991 0.00046991 0c0.00255884,0.00171379 0.00727768,0.00614042 0.0108632,0.00614042l0.00046991 0c0.0126876,0 0.0335295,-0.0222872 0.0335295,-0.035417 0,-0.00561523 -0.00618386,-0.00843469 -0.00708419,-0.011807l-0.00046991 -0.00046991 -0.000473859 -0.000943769 -0.000473859 -0.000473859 -0.00046991 -0.000473859 -0.000473859 -0.00046991 -0.00046991 -0.000473859 -0.000473859 -0.000943769 -0.000473859 -0.000473859 -0.00046991 -0.00046991 -0.000473859 0c0.000248776,0.00105828 0.000473859,0.00108593 0.000473859,0.0023614l0 0.00188754c0,0.00796873 -0.00965882,0.0202851 -0.0140499,0.0246723 -0.00643658,0.00643263 -0.0129956,0.0131061 -0.025616,0.0131061z"/>
   <path id="_103687232" class="fil5" d="M0.0543082 0.132222l0 -0.000473859c0,-0.00546517 0.00296557,-0.0132207 0.00802796,-0.0132207l0.0023614 0c0.00733297,0 0.0136945,0.0137695 0.0136945,0.0221963l0 0.00141368c0,0.005556 -0.00295372,0.0127508 -0.00802796,0.0127508l-0.0023614 0c-0.00715527,0 -0.0136945,-0.0141249 -0.0136945,-0.0226663zm0.0306942 -0.0864161l-0.0023614 0.00046991 -0.0023614 0.000473859 -0.00188754 0.000473859 -0.00141763 0.00046991 -0.00189149 0.000473859 -0.00141368 0.00046991 -0.00141763 0.000473859 -0.000943769 0.000473859 -0.00141763 0.00046991 -0.000943769 0.000473859 -0.00141763 0.00046991c0.000900332,0.0033723 0.00708419,0.00619176 0.00708419,0.011807 0,0.0131298 -0.0208419,0.035417 -0.0335295,0.035417l-0.00046991 0c-0.00358553,0 -0.00830438,-0.00442663 -0.0108632,-0.00614042l-0.00046991 0.000473859 -0.000473859 0.000943769 -0.00046991 0.00141763 -0.000473859 0.00188754 -0.000473859 0.00141763 -0.00046991 0.00188754 -0.000473859 0.0023614 -0.00046991 0.00283526 -0.000473859 0.00377508 0 0.0141684 0.000473859 0.00424893 0.00046991 0.0023614 0.000473859 0.0023614 0.00046991 0.00188754 0.000473859 0.00141763 0.000473859 0.00188754 0.00046991 0.00141763 0.000473859 0.00141763 0.00046991 0.00141763 0.000473859 0.000943769 0.00046991 0.00141763 0.000473859 0.000943769 0.000473859 0.000943769 0.00046991 0.000943769 0.000473859 0.000943769 0.00046991 0.000943769 0.000473859 0.000947718 0.000473859 0.000943769 0.00046991 0.00046991 0.000473859 0.000947718 0.00046991 0.000943769 0.000473859 0.000943769 0.000473859 0.00046991 0.00046991 0.000947718 0.000473859 0.00046991 0.00046991 0.000943769 0.000473859 0.000473859 0.00046991 0.000943769 0.000473859 0.000473859 0.000473859 0.00046991 0.00046991 0.000947718 0.000473859 0.00046991 0.00046991 0.000473859 0.000473859 0.00046991 0.000473859 0.000473859 0.00046991 0.000943769 0.000473859 0.000473859 0.00046991 0.00046991 0.000473859 0.000473859 0.00046991 0.00046991 0.000473859 0.000473859 0.000473859 0.000473859 0.00046991 0.00046991 0.000473859 0.000473859 0.00046991 0.00046991 0.000473859 0.000473859 0.000473859 0.00046991 0.00046991 0.000473859 0.000473859 0.000473859 0.00046991 0.00046991 0.000473859 0.000473859 0.000943769 0.00046991 0.000473859 0.000473859 0.00046991 0.000473859 0.000473859 0.00046991 0.000943769 0.000473859 0.000473859 0.00046991 0.00046991 0.000473859 0.000473859 0.00046991 0.000943769 0.000473859 0.00046991 0.000473859 0.000947718 0.00046991 0.00046991 0.000473859 0.000943769 0.00046991 0.000473859 0.000473859 0.000943769 0.000473859 0.000943769 0.00046991 0.000473859 0.000473859 0.000943769 0.00046991 0.000943769 0.000473859 0.000943769 0.000473859 0.000947718 0.00046991 0.000943769 0.000473859 0.000943769 0.00046991 0.000943769 0.000473859 0.000943769 0.00046991 0.00141763 0.000473859 0.000943769 0.000473859 0.00141763 0.00046991 0.000473859 0c0.000434371,-0.000276418 0.0121782,-0.00153214 0.0143421,-0.0021837 0.00456879,-0.00138209 0.00875454,-0.00229822 0.0127389,-0.00426078 0.00830043,-0.00408703 0.0140657,-0.00755015 0.0202575,-0.0137419 0.00979308,-0.00979703 0.021604,-0.0272311 0.021604,-0.0463947l0 -0.00850182c0,-0.0157163 -0.00790555,-0.0304573 -0.0147173,-0.039587 -0.00398041,-0.00533486 -0.00848997,-0.00947718 -0.013892,-0.0134971 -0.00272864,-0.00202575 -0.00522035,-0.00374743 -0.00838335,-0.00531117 -0.00198231,-0.000983257 -0.0080635,-0.00356184 -0.00928369,-0.00441084l-0.00661428 0 -0.00377508 0.000473859z"/>
   <path id="_103687328" class="fil6" d="M0.0543082 0.132222c0,0.00854131 0.00653925,0.0226663 0.0136945,0.0226663l0.0023614 0c0.00507424,0 0.00802796,-0.00719476 0.00802796,-0.0127508l0 -0.00141368c0,-0.00842679 -0.00636156,-0.0221963 -0.0136945,-0.0221963l-0.0023614 0c-0.00506239,0 -0.00802796,0.00775549 -0.00802796,0.0132207l0 0.000473859z"/>
   <path id="_103687400" class="fil4" d="M0.0727255 0.183221l0.000943769 0.000473859 0.00141368 0.00046991 0.00141763 0.000473859 0.00189149 0.000473859 0.00141368 0.00046991 0.0023614 0.000473859 0.00283526 0.00046991 0.00330517 0.000473859 0.0165258 0 0.00330517 -0.000473859 0.0023614 -0.00046991 0.0023614 -0.000473859 0.00189149 -0.00046991 0.00141368 -0.000473859 0.00141763 -0.000473859 0.00188754 -0.00046991 0.000947718 -0.000473859 0.00141368 -0.00046991 0.00141763 -0.000473859 0.000943769 -0.000473859 0.000943769 -0.00046991 0.00141763 -0.000473859 0.000943769 -0.00046991 0.000947718 -0.000473859 0.000943769 -0.00046991 0.000943769 -0.000473859 0.00046991 -0.000473859 0.000947718 -0.00046991 0.000943769 -0.000473859 0.00046991 -0.00046991 0.000947718 -0.000473859 0.000943769 -0.000473859 0.00046991 -0.00046991 0.000947718 -0.000473859 0.00046991 -0.00046991 0.000943769 -0.000473859 0.000473859 -0.000473859 0.00046991 -0.00046991 0.000947718 -0.000473859 0.00046991 -0.00046991 0.000473859 -0.000473859 0.00046991 -0.00046991 0.000947718 -0.000473859 0.00046991 -0.000473859 0.000473859 -0.00046991 0.00046991 -0.000473859 0.000473859 -0.00046991 0.00046991 -0.000473859 0.000473859 -0.000473859 0.000473859 -0.00046991 0.00046991 -0.000473859 0.000473859 -0.00046991 0.00046991 -0.000473859 0.000473859 -0.00046991 0.000473859 -0.000473859 0.00046991 -0.000473859 0.000473859 -0.00046991 0.00046991 -0.000473859 0.000473859 -0.00046991 0.00046991 -0.000473859 0.000473859 -0.000473859 0.000473859 -0.00046991 0.00046991 -0.000943769 0.000473859 -0.000473859 0.00046991 -0.00046991 0.000473859 -0.000473859 0.000473859 -0.000943769 0.00046991 -0.000473859 0.000473859 -0.00046991 0.00046991 -0.000947718 0.000473859 -0.00046991 0.00046991 -0.000943769 0.000473859 -0.000473859 0.000473859 -0.000943769 0.00046991 -0.000943769 0.000473859 -0.000473859 0.00046991 -0.000943769 0.000473859 -0.000943769 0.000473859 -0.000943769 0.00046991 -0.000473859 0.000473859 -0.000943769 0.00046991 -0.000943769 0.000473859 -0.000943769 0.00046991 -0.00141763 0.000473859 -0.000943769 0.000473859 -0.000947718 0.00046991 -0.00141368 0.000473859 -0.00141763 0.00046991 -0.000943769 0.000473859 -0.00141763 0.000473859 -0.00188754 0.00046991 -0.00141763 0.000473859 -0.00188754 0.00046991 -0.00189149 0.000473859 -0.00283131 0.000473859 -0.00283526 0 -0.0174696 -0.000473859 -0.00330911 -0.000473859 -0.00283131 -0.00046991 -0.00188754 -0.000473859 -0.00189149 -0.00046991 -0.00141368 -0.000473859 -0.00189149 -0.000473859 -0.000943769 -0.00046991 -0.00141763 -0.000473859 -0.00141763 -0.00046991 -0.00141368 -0.000473859 -0.000943769 -0.000473859 -0.000947718 -0.00046991 -0.00141368 -0.000473859 -0.000473859 -0.00046991 -0.000943769 -0.000473859 -0.000943769 -0.00046991 -0.000943769 -0.000473859 -0.000947718 -0.000473859 -0.000943769 -0.00046991 -0.000943769 -0.000473859 -0.000473859 -0.00046991 -0.000943769 -0.000473859 -0.00046991 -0.000473859 -0.000943769 -0.00046991 -0.000947718 -0.000473859 -0.00046991 -0.00046991 -0.000473859 -0.000473859 -0.000943769 -0.00046991 -0.000473859 -0.000473859 -0.00046991 -0.000473859 -0.000943769 -0.00046991 -0.000473859 -0.000473859 -0.000473859 -0.00046991 -0.00046991 -0.000473859 -0.000473859 -0.000473859 -0.000943769 -0.00046991 -0.00046991 -0.000473859 -0.000473859 -0.00046991 -0.000473859 -0.000473859 -0.00046991 -0.00046991 -0.000473859 -0.000473859 -0.00046991 -0.000473859 -0.000473859 -0.00046991 -0.000473859 -0.000473859 -0.00046991 -0.00046991 -0.000473859 -0.000473859 -0.00046991 -0.000473859 -0.000473859 -0.00046991 -0.00046991 -0.000473859 -0.000473859 -0.00046991 -0.000473859 -0.000943769 -0.00046991 -0.000473859 -0.000473859 -0.000473859 -0.00046991 -0.00046991 -0.000473859 -0.000473859 -0.000473859 -0.000943769 -0.00046991 -0.000473859 -0.000473859 -0.00046991 -0.00046991 -0.000943769 -0.000473859 -0.000473859 -0.00046991 -0.000943769 -0.000473859 -0.000473859 -0.000473859 -0.000943769 -0.00046991 -0.00046991 -0.000473859 -0.000947718 -0.00046991 -0.000943769 -0.000473859 -0.00046991 -0.000473859 -0.000947718 -0.00046991 -0.000943769 -0.000473859 -0.000943769 -0.00046991 -0.000943769 -0.000473859 -0.000943769 -0.00046991 -0.000943769 -0.000473859 -0.000947718 -0.000473859 -0.000943769 -0.00046991 -0.00141368 -0.000473859 -0.000947718 -0.00046991 -0.00141368 -0.000473859 -0.00141763 -0.000473859 -0.00141763 -0.00046991 -0.00141763 -0.000473859 -0.00188754 -0.00046991 -0.00188754 -0.000473859 -0.00189149 -0.000473859 -0.00283131 -0.00046991 -0.00330517 -0.000473859 -0.00897173 0c0.00122019,0.000848997 0.00730138,0.00342758 0.00928369,0.00441084 0.00316301,0.00156373 0.00565472,0.00328542 0.00838335,0.00531117 0.00540199,0.0040199 0.00991155,0.00816222 0.013892,0.0134971 0.00681172,0.00912968 0.0147173,0.0238706 0.0147173,0.039587l0 0.00850182c0,0.0191636 -0.0118109,0.0365977 -0.021604,0.0463947 -0.00619176,0.00619176 -0.011957,0.00965487 -0.0202575,0.0137419 -0.00398436,0.00196257 -0.00817012,0.00287869 -0.0127389,0.00426078 -0.00216396,0.000651556 -0.0139078,0.00190728 -0.0143421,0.0021837z"/>
  </g>
 </g>
</svg>
